{
  "asset": {
    "version": "2.0",
    "generator": "THREE.GLTFExporter r177"
  },
  "scenes": [
    {
      "name": "Scene",
      "nodes": [
        0
      ]
    }
  ],
  "scene": 0,
  "nodes": [
    {
      "name": "gunn.glb",
      "children": [
        1,
        2,
        3
      ]
    },
    {
      "matrix": [
        1,
        0,
        0,
        0,
        0,
        1,
        0,
        0,
        0,
        0,
        1,
        0,
        0.976091742515564,
        -0.20889121294021606,
        0,
        1
      ],
      "name": "base",
      "extras": {
        "name": "base"
      },
      "mesh": 0
    },
    {
      "matrix": [
        1,
        0,
        0,
        0,
        0,
        1,
        0,
        0,
        0,
        0,
        1,
        0,
        0.976091742515564,
        -0.20889121294021606,
        0,
        1
      ],
      "name": "mag",
      "extras": {
        "name": "mag"
      },
      "mesh": 1
    },
    {
      "matrix": [
        1,
        0,
        0,
        0,
        0,
        1,
        0,
        0,
        0,
        0,
        1,
        0,
        0.976091742515564,
        -0.20889121294021606,
        0,
        1
      ],
      "name": "trigger",
      "extras": {
        "name": "trigger"
      },
      "mesh": 2
    }
  ],
  "bufferViews": [
    {
      "buffer": 0,
      "byteOffset": 0,
      "byteLength": 81876,
      "target": 34962,
      "byteStride": 12
    },
    {
      "buffer": 0,
      "byteOffset": 81876,
      "byteLength": 81876,
      "target": 34962,
      "byteStride": 12
    },
    {
      "buffer": 0,
      "byteOffset": 163752,
      "byteLength": 54584,
      "target": 34962,
      "byteStride": 8
    },
    {
      "buffer": 0,
      "byteOffset": 218336,
      "byteLength": 27288,
      "target": 34963
    },
    {
      "buffer": 0,
      "byteOffset": 245624,
      "byteLength": 672,
      "target": 34962,
      "byteStride": 12
    },
    {
      "buffer": 0,
      "byteOffset": 246296,
      "byteLength": 672,
      "target": 34962,
      "byteStride": 12
    },
    {
      "buffer": 0,
      "byteOffset": 246968,
      "byteLength": 448,
      "target": 34962,
      "byteStride": 8
    },
    {
      "buffer": 0,
      "byteOffset": 247416,
      "byteLength": 216,
      "target": 34963
    },
    {
      "buffer": 0,
      "byteOffset": 247632,
      "byteLength": 3480,
      "target": 34962,
      "byteStride": 12
    },
    {
      "buffer": 0,
      "byteOffset": 251112,
      "byteLength": 3480,
      "target": 34962,
      "byteStride": 12
    },
    {
      "buffer": 0,
      "byteOffset": 254592,
      "byteLength": 2320,
      "target": 34962,
      "byteStride": 8
    },
    {
      "buffer": 0,
      "byteOffset": 256912,
      "byteLength": 984,
      "target": 34963
    }
  ],
  "buffers": [
    {
      "byteLength": 257896,
      "uri": "data:application/octet-stream;base64,"
    }
  ],
  "accessors": [
    {
      "bufferView": 0,
      "componentType": 5126,
      "count": 6823,
      "max": [
        -0.5519255995750427,
        0.8084447383880615,
        0.04081874340772629
      ],
      "min": [
        -1.2838962078094482,
        0.40433648228645325,
        -0.040901776403188705
      ],
      "type": "VEC3"
    },
    {
      "bufferView": 1,
      "componentType": 5126,
      "count": 6823,
      "max": [
        1,
        1,
        1
      ],
      "min": [
        -1,
        -1,
        -1
      ],
      "type": "VEC3"
    },
    {
      "bufferView": 2,
      "componentType": 5126,
      "count": 6823,
      "max": [
        0.9465625286102295,
        1
      ],
      "min": [
        0,
        0.04187500476837158
      ],
      "type": "VEC2"
    },
    {
      "bufferView": 3,
      "componentType": 5123,
      "count": 13644,
      "max": [
        6822
      ],
      "min": [
        0
      ],
      "type": "SCALAR"
    },
    {
      "bufferView": 4,
      "componentType": 5126,
      "count": 56,
      "max": [
        -1.0351201295852661,
        0.7057320475578308,
        0.026734866201877594
      ],
      "min": [
        -1.194221019744873,
        0.3912030756473541,
        -0.026734741404652596
      ],
      "type": "VEC3"
    },
    {
      "bufferView": 5,
      "componentType": 5126,
      "count": 56,
      "max": [
        0.9946085214614868,
        1,
        1
      ],
      "min": [
        -0.9947947263717651,
        -1,
        -1
      ],
      "type": "VEC3"
    },
    {
      "bufferView": 6,
      "componentType": 5126,
      "count": 56,
      "max": [
        0.8357812762260437,
        0.04406249523162842
      ],
      "min": [
        0.8282812833786011,
        0.03406250476837158
      ],
      "type": "VEC2"
    },
    {
      "bufferView": 7,
      "componentType": 5123,
      "count": 108,
      "max": [
        55
      ],
      "min": [
        0
      ],
      "type": "SCALAR"
    },
    {
      "bufferView": 8,
      "componentType": 5126,
      "count": 290,
      "max": [
        -0.9785792231559753,
        0.6616166234016418,
        0.005437739193439484
      ],
      "min": [
        -1.018456220626831,
        0.591195821762085,
        -0.005437592044472694
      ],
      "type": "VEC3"
    },
    {
      "bufferView": 9,
      "componentType": 5126,
      "count": 290,
      "max": [
        1,
        1,
        1
      ],
      "min": [
        -1,
        -0.9262954592704773,
        -1
      ],
      "type": "VEC3"
    },
    {
      "bufferView": 10,
      "componentType": 5126,
      "count": 290,
      "max": [
        0.8006250262260437,
        0.07140624523162842
      ],
      "min": [
        0.7931250333786011,
        0.06140625476837158
      ],
      "type": "VEC2"
    },
    {
      "bufferView": 11,
      "componentType": 5123,
      "count": 492,
      "max": [
        289
      ],
      "min": [
        0
      ],
      "type": "SCALAR"
    }
  ],
  "materials": [
    {
      "pbrMetallicRoughness": {
        "metallicFactor": 0,
        "roughnessFactor": 0.4000000059604645
      },
      "doubleSided": true,
      "name": "Material.001"
    }
  ],
  "meshes": [
    {
      "primitives": [
        {
          "mode": 4,
          "attributes": {
            "POSITION": 0,
            "NORMAL": 1,
            "TEXCOORD_0": 2
          },
          "indices": 3,
          "material": 0
        }
      ]
    },
    {
      "primitives": [
        {
          "mode": 4,
          "attributes": {
            "POSITION": 4,
            "NORMAL": 5,
            "TEXCOORD_0": 6
          },
          "indices": 7,
          "material": 0
        }
      ]
    },
    {
      "primitives": [
        {
          "mode": 4,
          "attributes": {
            "POSITION": 8,
            "NORMAL": 9,
            "TEXCOORD_0": 10
          },
          "indices": 11,
          "material": 0
        }
      ]
    }
  ]
}